<?xml version="1.0" encoding="UTF-8"?>
<svg width="22px" height="23px" viewBox="0 0 22 23" version="1.1" xmlns="http://www.w3.org/2000/svg" xmlns:xlink="http://www.w3.org/1999/xlink">
    <!-- Generator: Sketch 48.1 (47250) - http://www.bohemiancoding.com/sketch -->
    <title>logo_小</title>
    <desc>Created with Sketch.</desc>
    <defs>
        <linearGradient x1="0%" y1="31.596463%" x2="100%" y2="71.0118307%" id="linearGradient-1">
            <stop stop-color="#02C8EA" offset="0%"></stop>
            <stop stop-color="#2A6FD1" offset="100%"></stop>
        </linearGradient>
    </defs>
    <g id="订单管理" stroke="none" stroke-width="1" fill="none" fill-rule="evenodd" transform="translate(-34.000000, -19.000000)">
        <g id="Group-3" fill="#FFFFFF">
            <g id="Group">
                <g id="logo" transform="translate(34.000000, 16.000000)">
                    <path d="M16.645694,6.83333333 C15.6173885,6.83333333 14.8033134,5.98643411 14.7818904,4.91666667 C14.7818904,3.86918605 15.6173885,3 16.645694,3 C17.6739994,3 18.5094975,3.84689922 18.5094975,4.91666667 C18.5094975,5.96414729 17.6739994,6.83333333 16.645694,6.83333333 Z M13.9678153,17.3527132 C13.9678153,18.4224806 13.1323171,19.2693798 12.0825887,19.3139535 L7.81940579,19.3139535 C3.49195382,19.3139535 0,15.6589147 0,11.1569767 C0,6.65503876 3.51337685,3 7.81940579,3 L11.2470905,3 C12.2325499,3 13.025202,3.84689922 13.025202,4.91666667 C13.025202,5.96414729 12.2325499,6.83333333 11.2470905,6.83333333 L7.81940579,6.83333333 C5.52714162,6.83333333 3.68476108,8.75 3.68476108,11.1346899 C3.68476108,13.5193798 5.54856465,15.4360465 7.81940579,15.4360465 L12.0825887,15.4360465 C13.1323171,15.4360465 13.9678153,16.2829457 13.9678153,17.3527132 Z M13.4322395,9.68604651 C17.7382685,9.68604651 21.2302223,13.3410853 21.2516453,17.7984496 C21.2516453,22.3003876 17.7382685,25.9554264 13.4322395,25.9554264 L10.0045548,25.9554264 C9.01909544,25.9554264 8.22644335,25.1085271 8.22644335,24.0387597 C8.22644335,22.9912791 9.01909544,22.122093 10.0045548,22.122093 L13.4322395,22.122093 C15.7245037,22.122093 17.5668842,20.2054264 17.5668842,17.8207364 C17.5668842,15.4360465 15.7030807,13.5193798 13.4322395,13.5193798 L9.16905665,13.5193798 C8.1193282,13.5193798 7.28383005,12.6724806 7.28383005,11.6027132 C7.28383005,10.5552326 8.14075123,9.68604651 9.16905665,9.68604651 L13.4322395,9.68604651 Z M4.64879741,22.1666667 C5.67710283,22.1666667 6.51260098,23.0358527 6.51260098,24.0833333 C6.51260098,25.130814 5.67710283,26 4.64879741,26 C3.62049199,26 2.78499384,25.1531008 2.78499384,24.0833333 C2.78499384,23.0358527 3.62049199,22.1666667 4.64879741,22.1666667 Z" id="logo_小"></path>
                </g>
            </g>
        </g>
    </g>
</svg>